# Blender 3.3.1
# www.blender.org
mtllib ComputerModel.mtl
o Cube
v -2.012746 -1.296663 2.076511
v -2.012746 1.000000 2.076511
v -2.012746 -1.296663 -1.000000
v -2.012746 1.000000 -1.000000
v 0.908077 -1.523895 1.796390
v 0.815864 1.390908 2.234209
v 0.908077 -1.523895 -0.719879
v 0.815864 1.390908 -1.250119
v 1.736398 -1.523895 1.796390
v 1.828610 1.484576 2.038364
v 1.736398 -1.523895 -0.719879
v 1.828610 1.484576 -1.054274
v -2.012746 -1.126265 2.076511
v -2.012746 -1.126265 -1.000000
v 0.815864 -1.216294 -1.250119
v 0.815864 -1.216294 2.234209
v 1.828610 -1.091105 -1.045011
v 1.828610 -1.091105 2.029100
v 0.357455 -1.487070 0.030223
v 0.440767 1.339071 -1.250119
v 0.357455 -1.487070 1.046289
v 0.440767 1.339071 2.234209
v 0.440767 -1.204355 2.234209
v 0.440767 -1.204355 -1.250119
v 0.084134 -1.465113 0.030223
v 0.000822 1.278271 2.076511
v 0.000822 -1.190353 2.076511
v 0.000822 1.278271 -1.000000
v 0.084134 -1.465113 1.046289
v 0.000822 -1.190353 -1.000000
v 0.440767 1.707342 -1.250119
v 0.815864 1.759180 -1.250119
v 0.815864 1.759180 2.234209
v 1.828610 1.759180 -1.250119
v 1.828610 1.759180 2.234209
v 0.190928 1.514726 -0.998892
v 0.440767 1.707342 2.234209
v 0.190928 1.514726 2.077619
v 0.000822 -1.458420 2.076511
v 0.440767 -1.493762 2.076511
v 0.440767 -1.493762 -1.000000
v 0.000822 -1.458420 -1.000000
v 0.084134 -2.278997 1.046289
v 0.357455 -2.300955 1.046289
v 0.357455 -2.300955 0.030223
v 0.084134 -2.278997 0.030223
v -0.973489 -2.457268 1.972046
v 1.383220 -2.519237 1.972046
v 1.383221 -2.519237 -0.895535
v -0.973489 -2.457268 -0.895535
v 1.828610 1.578854 -1.250119
v 1.828610 1.578854 2.234209
v 1.828610 -1.216294 -1.250119
v 1.828610 -1.216294 2.234209
v 1.616188 1.484576 -1.054274
v 1.616188 1.484576 2.038364
v 1.616188 -1.091105 -1.045011
v 1.616188 -1.091105 2.029100
vn -1.0000 -0.0000 -0.0000
vn -0.0000 -0.0000 -1.0000
vn -0.0000 -0.8182 0.5749
vn -0.0000 -0.0000 1.0000
vn -0.0643 -0.9979 -0.0000
vn -0.1369 0.9906 -0.0000
vn -0.0000 1.0000 -0.0000
vn -0.0000 -1.0000 -0.0000
vn -0.0000 -0.8650 -0.5018
vn 0.9579 -0.2872 -0.0000
vn 0.1647 -0.7739 -0.6115
vn -0.2717 -0.3940 -0.8781
vn 0.2019 -0.6759 0.7088
vn -0.7794 0.6266 -0.0000
vn -0.4942 -0.0000 -0.8693
vn -0.0801 -0.9968 -0.0000
vn -0.1845 -0.2675 0.9457
vn -0.4529 0.1407 0.8804
vn -0.3374 -0.0000 0.9414
vn -0.6106 0.7920 -0.0000
vn -0.6228 0.1972 -0.7572
vn 1.0000 -0.0000 -0.0000
vn 0.0312 0.9772 -0.2098
vn -0.0263 -0.9997 -0.0000
vn 0.0312 0.9772 0.2098
vn -0.1662 0.9861 -0.0000
vn 0.2081 0.9781 -0.0000
vn -0.0000 0.0036 1.0000
vn -0.0000 0.0036 -1.0000
vt 0.375000 1.000000
vt 0.375000 0.000000
vt 0.125000 0.750000
vt 0.625000 0.000000
vt 0.625000 1.000000
vt 0.875000 0.750000
vt 0.125000 0.500000
vt 0.375000 0.250000
vt 0.875000 0.500000
vt 0.625000 0.250000
vt 0.375000 0.750000
vt 0.625000 0.750000
vt 0.375000 0.500000
vt 0.625000 0.500000
vt 0.375000 0.750000
vt 0.619518 0.745569
vt 0.375000 0.500000
vt 0.619518 0.504431
vt 0.393548 1.000000
vt 0.393548 0.000000
vt 0.393548 0.250000
vt 0.393548 0.500000
vt 0.393548 0.750000
vt 0.411757 0.514716
vt 0.411757 0.735284
vt 0.334485 0.506792
vt 0.625000 0.466848
vt 0.334485 0.743208
vt 0.625000 0.783152
vt 0.393548 0.783152
vt 0.393548 0.466848
vt 0.310328 0.506792
vt 0.697036 0.750000
vt 0.625000 0.822036
vt 0.393548 0.822036
vt 0.697036 0.500000
vt 0.625000 0.427964
vt 0.310328 0.743208
vt 0.393548 0.427964
vt 0.658152 0.500000
vt 0.625000 0.466848
vt 0.625000 0.500000
vt 0.625000 0.750000
vt 0.625000 0.500000
vt 0.625000 0.750000
vt 0.697036 0.500000
vt 0.625000 0.427964
vt 0.658152 0.750000
vt 0.625000 0.783152
vt 0.625000 0.822036
vt 0.697036 0.750000
vt 0.375000 0.822036
vt 0.302964 0.750000
vt 0.375000 0.783152
vt 0.341848 0.750000
vt 0.375000 0.466848
vt 0.341848 0.500000
vt 0.375000 0.427964
vt 0.302964 0.500000
vt 0.310328 0.743208
vt 0.334485 0.743208
vt 0.334485 0.506792
vt 0.310328 0.506792
vt 0.310328 0.743208
vt 0.334485 0.743208
vt 0.334485 0.506792
vt 0.310328 0.506792
vt 0.625000 0.500000
vt 0.625000 0.750000
vt 0.393548 0.500000
vt 0.393548 0.750000
vt 0.619518 0.504431
vt 0.619518 0.745569
vt 0.411757 0.514716
vt 0.411757 0.735284
s 0
f 13/20/1 2/4/1 4/10/1 14/21/1
f 24/31/2 20/27/2 8/14/2 15/22/2
f 16/23/3 5/11/3 9/15/3 54/71/3
f 27/35/4 26/34/4 2/5/4 13/19/4
f 41/57/5 7/13/5 5/11/5 40/55/5
f 28/36/6 4/9/6 2/6/6 26/33/6
f 18/25/7 17/24/7 57/74/7 58/75/7
f 5/11/8 7/13/8 11/17/8 9/15/8
f 51/68/2 8/14/2 32/42/2 34/44/2
f 15/22/2 8/14/2 51/68/2 53/70/2
f 7/13/9 15/22/9 53/70/9 11/17/9
f 11/17/10 53/70/10 54/71/10 9/15/10
f 39/52/4 27/35/4 13/19/4 1/1/4
f 6/12/4 16/23/4 54/71/4 52/69/4
f 41/56/11 24/31/11 15/22/11 7/13/11
f 1/2/1 13/20/1 14/21/1 3/8/1
f 42/58/12 30/39/12 24/31/12 41/56/12
f 5/11/13 16/23/13 23/30/13 40/54/13
f 28/36/14 26/33/14 38/51/14 36/46/14
f 25/32/2 19/26/2 45/62/2 46/63/2
f 16/23/4 6/12/4 22/29/4 23/30/4
f 30/39/15 28/37/15 20/27/15 24/31/15
f 14/21/2 4/10/2 28/37/2 30/39/2
f 3/7/16 42/59/16 39/53/16 1/3/16
f 3/8/2 14/21/2 30/39/2 42/58/2
f 40/54/17 23/30/17 27/35/17 39/52/17
f 26/34/18 22/29/18 37/49/18 38/50/18
f 23/30/19 22/29/19 26/34/19 27/35/19
f 32/42/7 33/43/7 35/45/7 34/44/7
f 32/42/6 31/40/6 37/48/6 33/43/6
f 31/40/20 36/46/20 38/51/20 37/48/20
f 6/12/4 52/69/4 35/45/4 33/43/4
f 22/29/4 6/12/4 33/43/4 37/49/4
f 20/27/21 28/37/21 36/47/21 31/41/21
f 8/14/2 20/27/2 31/41/2 32/42/2
f 52/69/22 51/68/22 34/44/22 35/45/22
f 29/38/16 21/28/16 40/55/16 39/53/16
f 21/28/16 19/26/16 41/57/16 40/55/16
f 19/26/16 25/32/16 42/59/16 41/57/16
f 25/32/16 29/38/16 39/53/16 42/59/16
f 46/63/23 45/62/23 49/66/23 50/67/23
f 21/28/4 29/38/4 43/60/4 44/61/4
f 29/38/1 25/32/1 46/63/1 43/60/1
f 19/26/22 21/28/22 44/61/22 45/62/22
f 50/67/24 49/66/24 48/65/24 47/64/24
f 44/61/25 43/60/25 47/64/25 48/65/25
f 43/60/26 46/63/26 50/67/26 47/64/26
f 45/62/27 44/61/27 48/65/27 49/66/27
f 10/16/22 12/18/22 51/68/22 52/69/22
f 12/18/22 17/24/22 53/70/22 51/68/22
f 18/25/22 10/16/22 52/69/22 54/71/22
f 17/24/22 18/25/22 54/71/22 53/70/22
f 57/74/22 55/72/22 56/73/22 58/75/22
f 17/24/28 12/18/28 55/72/28 57/74/28
f 10/16/29 18/25/29 58/75/29 56/73/29
f 12/18/8 10/16/8 56/73/8 55/72/8
